<svg xmlns="http://www.w3.org/2000/svg" viewBox="0 0 92.6 30" width="92.6" height="30">
<path fill="#fff" d="M4.4,22h3.7l2.2-7.9h0.2l2.2,7.9h3.7l3.4-12.5h-3.5l-1.9,8.4h-0.1l-2.1-8.4H8.6l-2,8.4H6.5L4.5,9.5H1L4.4,22z
	 M26.9,22.2c3.8,0,6.2-2.6,6.2-6.5c0-3.9-2.4-6.5-6.2-6.5c-3.8,0-6.2,2.6-6.2,6.5C20.7,19.6,23.1,22.2,26.9,22.2z M26.9,19.5
	c-1.8,0-2.7-1.6-2.7-3.8s0.9-3.8,2.7-3.8c1.7,0,2.6,1.6,2.6,3.8S28.6,19.5,26.9,19.5z M35.3,22h3.5v-7.1c0-1.5,1.1-2.6,2.7-2.6
	c0.5,0,1.1,0.1,1.5,0.2V9.4c-0.3-0.1-0.7-0.1-1.1-0.1c-1.4,0-2.6,0.8-3,2.4h-0.1V9.5h-3.4V22z M44.7,22h3.5v-4l0.9-1.1l3.4,5.1h4.1
	l-4.9-7.1l4.7-5.4h-4l-4,4.8h-0.2V5.3h-3.5V22z M63.3,22.2c3.1,0,5.2-1.5,5.7-3.8l-3.2-0.2c-0.4,1-1.2,1.5-2.4,1.5
	c-1.7,0-2.8-1.2-2.8-3v0h8.5v-1c0-4.3-2.6-6.4-5.9-6.4c-3.7,0-6.1,2.6-6.1,6.5C57.1,19.8,59.4,22.2,63.3,22.2z M60.5,14.5
	c0.1-1.4,1.2-2.6,2.7-2.6c1.5,0,2.6,1.1,2.6,2.6H60.5z M71.3,22h3.5v-7.1c0-1.5,1.1-2.6,2.7-2.6c0.5,0,1.1,0.1,1.5,0.2V9.4
	c-0.3-0.1-0.7-0.1-1.1-0.1c-1.4,0-2.6,0.8-3,2.4h-0.1V9.5h-3.4V22z M91.2,13c-0.3-2.3-2.2-3.7-5.3-3.7c-3.2,0-5.3,1.5-5.3,3.9
	c0,1.9,1.2,3.1,3.6,3.6l2.2,0.4c1.1,0.2,1.6,0.6,1.6,1.2c0,0.7-0.8,1.3-2,1.3c-1.2,0-2.1-0.5-2.3-1.6l-3.4,0.2
	c0.3,2.4,2.4,3.9,5.7,3.9c3.3,0,5.6-1.7,5.6-4.1c0-1.8-1.2-2.9-3.6-3.4l-2.3-0.5C84.4,14,84,13.6,84,13c0-0.8,0.8-1.2,1.9-1.2
	c1.2,0,1.9,0.7,2.1,1.5L91.2,13z"/>
</svg>
