<svg width="134" height="30" viewBox="0 0 134 30" fill="none" xmlns="http://www.w3.org/2000/svg">
  <path d="M13.9852 27.4376C14.1797 26.9367 14.2724 26.4021 14.258 25.865C14.2877 24.3764 14.6855 22.9184 15.416 21.621C16.1447 20.3258 17.1838 19.2321 18.44 18.438C18.9051 18.1885 19.3148 17.8473 19.6442 17.4349C19.9736 17.0225 20.216 16.5476 20.3566 16.0389C20.4972 15.5301 20.5331 14.9982 20.4622 14.4751C20.3913 13.9521 20.215 13.4489 19.944 12.996C19.582 12.391 19.061 11.895 18.44 11.565C18.084 11.318 17.742 11.052 17.416 10.767L16.599 9.967C15.1019 8.3932 14.2624 6.30708 14.252 4.135C14.2675 3.59777 14.1752 3.06288 13.9806 2.56188C13.786 2.06089 13.493 1.60395 13.119 1.218C12.7466 0.832488 12.3004 0.52595 11.807 0.316684C11.3135 0.107418 10.783 -0.000286365 10.247 5.71818e-07C9.71132 0.000756001 9.18123 0.108938 8.6881 0.318146C8.19497 0.527354 7.7488 0.833339 7.37599 1.218C7.00262 1.60462 6.7101 2.06183 6.51556 2.56287C6.32101 3.06391 6.22835 3.59872 6.24299 4.136C6.25173 4.83344 6.44383 5.5163 6.79999 6.116C7.15493 6.71469 7.66169 7.20902 8.26899 7.549C10.728 9.105 12.439 12.08 12.439 15.006C12.4329 17.1592 11.6094 19.2298 10.135 20.799L8.27499 22.451C7.66799 22.79 7.16099 23.284 6.80499 23.884C6.44799 24.483 6.25699 25.167 6.24799 25.865C6.2327 26.4022 6.32506 26.9371 6.51964 27.438C6.71423 27.939 7.00709 28.396 7.38099 28.782C7.75343 29.1674 8.19967 29.4739 8.69309 29.6832C9.18652 29.8924 9.71703 30.0002 10.253 30C10.7888 29.9994 11.3191 29.8913 11.8124 29.682C12.3057 29.4728 12.7521 29.1668 13.125 28.782C13.4982 28.3955 13.7906 27.9384 13.9852 27.4376Z" fill="#6366F1"/>
  <path d="M19.417 6.36C18.976 5.698 18.741 4.919 18.741 4.123C18.7417 3.05673 19.1641 2.034 19.916 1.278C20.5698 0.62024 21.4321 0.210504 22.355 0.119089C23.2779 0.0276751 24.2039 0.260281 24.974 0.777001C25.6337 1.2199 26.1473 1.84836 26.45 2.583C26.7527 3.31848 26.8318 4.12692 26.6772 4.9071C26.5226 5.68728 26.1413 6.40452 25.581 6.969C25.0224 7.53193 24.3087 7.91563 23.5311 8.07112C22.7534 8.22661 21.9471 8.14685 21.215 7.842C20.4822 7.53685 19.8564 7.02107 19.417 6.36Z" fill="#6366F1"/>
  <path d="M20.522 22.518C21.181 22.076 21.956 21.84 22.748 21.84V21.838C23.2745 21.8386 23.7956 21.9432 24.2816 22.1457C24.7676 22.3482 25.2088 22.6446 25.58 23.018C26.2359 23.6779 26.6439 24.544 26.735 25.47C26.8261 26.3959 26.5948 27.3249 26.08 28.1C25.6406 28.762 25.0144 29.2785 24.281 29.584C23.5489 29.8888 22.7425 29.9686 21.9649 29.8131C21.1873 29.6576 20.4736 29.2739 19.915 28.711C19.3545 28.1464 18.9731 27.429 18.8185 26.6486C18.6639 25.8683 18.743 25.0596 19.046 24.324C19.3488 23.5894 19.8624 22.9609 20.522 22.518Z" fill="#6366F1"/>
  <path d="M32.325 12.758C32.7648 13.4198 32.9998 14.1974 33 14.9931C32.9993 16.0597 32.577 17.0827 31.825 17.839C31.4537 18.2122 31.0125 18.5086 30.5265 18.7111C30.0406 18.9136 29.5194 19.0182 28.993 19.019C28.2001 19.019 27.4252 18.783 26.767 18.341C26.1073 17.8981 25.5937 17.2696 25.291 16.535C24.988 15.7994 24.9089 14.9907 25.0635 14.2104C25.2181 13.43 25.5995 12.7126 26.16 12.148C26.7187 11.5849 27.4325 11.2011 28.2104 11.0456C28.9882 10.8901 29.7948 10.9699 30.527 11.275C31.2599 11.5804 31.8857 12.0966 32.325 12.758Z" fill="#6366F1"/>
  <path d="M1.78099 11.647C2.43999 11.205 3.21399 10.969 4.00699 10.969C4.53334 10.9701 5.0543 11.075 5.54007 11.2776C6.02585 11.4803 6.4669 11.7767 6.83799 12.15C7.49361 12.8097 7.90141 13.6754 7.99251 14.601C8.08361 15.5265 7.85242 16.4552 7.338 17.23C6.89866 17.8914 6.2729 18.4075 5.53999 18.713C4.80763 19.0164 4.00166 19.0953 3.22434 18.9399C2.44702 18.7845 1.73339 18.4017 1.17399 17.84C0.613697 17.2755 0.232385 16.5583 0.077808 15.7781C-0.0767693 14.9979 0.00225815 14.1895 0.304995 13.454C0.607587 12.719 1.12121 12.0902 1.78099 11.647Z" fill="#6366F1"/>
  <path d="M45.8633 22H49.5387L51.695 14.1101H51.8501L54.0064 22H57.69L61.0959 9.45455H57.5838L55.6726 17.8345H55.5664L53.5082 9.45455H50.0533L48.0277 17.8835H47.9134L45.9695 9.45455H42.4492L45.8633 22ZM68.3058 22.245C72.112 22.245 74.4806 19.6396 74.4806 15.7763C74.4806 11.8885 72.112 9.29119 68.3058 9.29119C64.4997 9.29119 62.1311 11.8885 62.1311 15.7763C62.1311 19.6396 64.4997 22.245 68.3058 22.245ZM68.3222 19.5497C66.5661 19.5497 65.6677 17.9407 65.6677 15.7518C65.6677 13.5629 66.5661 11.9457 68.3222 11.9457C70.0455 11.9457 70.944 13.5629 70.944 15.7518C70.944 17.9407 70.0455 19.5497 68.3222 19.5497ZM76.743 22H80.2224V14.9023C80.2224 13.3587 81.3495 12.2969 82.885 12.2969C83.3669 12.2969 84.0285 12.3786 84.3552 12.4847V9.39737C84.0448 9.32386 83.612 9.27486 83.2607 9.27486C81.8559 9.27486 80.7043 10.0916 80.2469 11.6435H80.1162V9.45455H76.743V22ZM86.1541 22H89.6335V18.0142L90.5728 16.9442L93.995 22H98.0707L93.1783 14.886L97.8338 9.45455H93.8398L89.8214 14.2163H89.6335V5.27273H86.1541V22ZM104.742 22.245C107.845 22.245 109.936 20.734 110.426 18.4062L107.208 18.1939C106.857 19.1495 105.959 19.6477 104.799 19.6477C103.059 19.6477 101.956 18.4961 101.956 16.6257V16.6175H110.5V15.6619C110.5 11.3984 107.919 9.29119 104.603 9.29119C100.911 9.29119 98.5178 11.913 98.5178 15.7844C98.5178 19.7621 100.878 22.245 104.742 22.245ZM101.956 14.4613C102.03 13.032 103.116 11.8885 104.66 11.8885C106.171 11.8885 107.216 12.9666 107.225 14.4613H101.956ZM112.77 22H116.25V14.9023C116.25 13.3587 117.377 12.2969 118.912 12.2969C119.394 12.2969 120.056 12.3786 120.383 12.4847V9.39737C120.072 9.32386 119.639 9.27486 119.288 9.27486C117.883 9.27486 116.732 10.0916 116.274 11.6435H116.144V9.45455H112.77V22ZM132.62 13.032C132.309 10.7205 130.447 9.29119 127.278 9.29119C124.068 9.29119 121.953 10.7777 121.961 13.1953C121.953 15.0739 123.137 16.2908 125.587 16.7809L127.76 17.2138C128.854 17.4343 129.353 17.8345 129.369 18.4634C129.353 19.2067 128.544 19.7376 127.327 19.7376C126.086 19.7376 125.261 19.2067 125.048 18.1857L121.626 18.3654C121.953 20.7667 123.995 22.245 127.319 22.245C130.57 22.245 132.897 20.587 132.906 18.1122C132.897 16.299 131.713 15.2127 129.279 14.7145L127.009 14.2571C125.841 14.0039 125.408 13.6037 125.416 12.9993C125.408 12.2479 126.257 11.7578 127.335 11.7578C128.544 11.7578 129.263 12.4194 129.434 13.228L132.62 13.032Z" fill="white"/>
</svg>
