<svg xmlns="http://www.w3.org/2000/svg" viewBox="0 0 1200 200" fill="#CACACA">
<path d="M208.2,75.6c-1.4-4.2-5.1-7.2-9.5-7.6l-60.2-5.5L114.6,6.7c-1.8-4.1-5.8-6.7-10.2-6.7s-8.4,2.6-10.2,6.7
	L70.3,62.5L10.1,68c-4.4,0.4-8.2,3.4-9.5,7.6s-0.1,8.9,3.2,11.8l45.5,39.9l-13.4,59.1c-1,4.3,0.7,8.8,4.3,11.5
	c1.9,1.4,4.2,2.1,6.5,2.1c2,0,3.9-0.5,5.7-1.6l52-31.1l51.9,31.1c3.8,2.3,8.6,2.1,12.2-0.5c3.6-2.6,5.3-7.1,4.3-11.5l-13.4-59.1
	l45.5-39.9C208.2,84.4,209.5,79.8,208.2,75.6z"/>
<path d="M701.9,75.4c-1.4-4.2-5.1-7.2-9.5-7.6l-60.2-5.5L608.3,6.5c-1.8-4.1-5.8-6.7-10.2-6.7s-8.4,2.6-10.2,6.7
	l-23.8,55.7l-60.2,5.5c-4.4,0.4-8.2,3.4-9.5,7.6s-0.1,8.9,3.2,11.8l45.5,39.9l-13.4,59.1c-1,4.3,0.7,8.8,4.3,11.5
	c1.9,1.4,4.2,2.1,6.5,2.1c2,0,3.9-0.5,5.7-1.6l52-31.1l51.9,31.1c3.8,2.3,8.6,2.1,12.2-0.5c3.6-2.6,5.3-7.1,4.3-11.5l-13.4-59.1
	l45.5-39.9C702,84.2,703.2,79.6,701.9,75.4z"/>
<path d="M1199.6,75.4c-1.4-4.2-5.1-7.2-9.5-7.6l-60.2-5.5L1106,6.5c-1.8-4.1-5.8-6.7-10.2-6.7s-8.4,2.6-10.2,6.7
	l-23.8,55.7l-60.2,5.5c-4.4,0.4-8.2,3.4-9.5,7.6s-0.1,8.9,3.2,11.8l45.5,39.9l-13.4,59.1c-1,4.3,0.7,8.8,4.3,11.5
	c1.9,1.4,4.2,2.1,6.5,2.1c2,0,3.9-0.5,5.7-1.6l52-31.1l51.9,31.1c3.8,2.3,8.6,2.1,12.2-0.5c3.6-2.6,5.3-7.1,4.3-11.5l-13.4-59.1
	l45.5-39.9C1199.7,84.2,1201,79.6,1199.6,75.4z"/>
<path d="M949.7,75.1c-1.4-4.2-5.1-7.2-9.5-7.6L879.9,62L856.1,6.2c-1.8-4.1-5.8-6.7-10.2-6.7c-4.4,0-8.4,2.6-10.2,6.7
	L811.8,62l-60.2,5.5c-4.4,0.4-8.2,3.4-9.5,7.6c-1.4,4.2-0.1,8.9,3.2,11.8l45.5,39.9l-13.4,59.1c-1,4.3,0.7,8.8,4.3,11.5
	c1.9,1.4,4.2,2.1,6.5,2.1c2,0,3.9-0.5,5.7-1.6l52-31.1l51.9,31.1c3.8,2.3,8.6,2.1,12.2-0.5c3.6-2.6,5.3-7.1,4.3-11.5l-13.4-59.1
	l45.5-39.9C949.8,83.9,951,79.3,949.7,75.1z"/>
<path d="M455.4,75.6c-1.4-4.2-5.1-7.2-9.5-7.6l-60.2-5.5L361.8,6.7C360,2.6,356,0,351.6,0s-8.4,2.6-10.2,6.7l-23.8,55.7
	L257.3,68c-4.4,0.4-8.2,3.4-9.5,7.6c-1.4,4.2-0.1,8.9,3.2,11.8l45.5,39.9l-13.4,59.1c-1,4.3,0.7,8.8,4.3,11.5
	c1.9,1.4,4.2,2.1,6.5,2.1c2,0,3.9-0.5,5.7-1.6l52-31.1l51.9,31.1c3.8,2.3,8.6,2.1,12.2-0.5c3.6-2.6,5.3-7.1,4.3-11.5l-13.4-59.1
	l45.5-39.9C455.5,84.4,456.8,79.8,455.4,75.6z"/>
</svg>
