<svg xmlns="http://www.w3.org/2000/svg" viewBox="0 0 520 520">
  <style type="text/css">
    .st0 { fill: #FFBA00; }
    .st1 { fill: #B5CDCD; }
  </style>

  <path class="st0" d="M144.2,136.4h67.4c13.9-33.2,14.8-57.9,14.8-97.8c-46.6,9.2-82.3,49.4-84.3,97.9 C142.8,136.5,143.5,136.4,144.2,136.4z" />
  <path class="st0" d="M269.2,39.1c0.1,39.6,1,64.3,14.8,97.4h65.2c0.7,0,1.4,0,2.1,0.1C349.3,88.8,314.7,49.1,269.2,39.1L269.2,39.1z" />
  <path class="st0" d="M144.2,178.9h205c1,0,2-0.1,2.9-0.2c10.4-1.4,18.4-10.3,18.4-21c0-11-8.4-20-19.2-21.1 c-0.7-0.1-1.4-0.1-2.1-0.1H284h-72.4h-67.4c-0.7,0-1.5,0-2.2,0.1c-10.7,1.1-19.2,10.2-19.2,21.1c0,10.7,8.1,19.6,18.4,21 C142.3,178.8,143.2,178.9,144.2,178.9L144.2,178.9z" />
  <path fill="#FFE6B4" d="M211.6,136.4H284c-13.9-33-14.8-57.7-14.8-97.4c0-1.4,0-2.9,0-4.4c0-2.5-2.1-4.6-4.6-4.6H231 c-2.5,0-4.6,2.1-4.6,4.6v3.9C226.4,78.5,225.5,103.3,211.6,136.4L211.6,136.4z" />
  <path fill="#F1C27D" d="M246.7,306.9c8.4,0,16.7-1.8,26.3-5.3c11-4.1,21.5-10.2,31.1-17.6c28.2-21.9,48-55.6,48-83.9v-21.4 c-1,0.1-1.9,0.2-2.9,0.2h-205c-1,0-2-0.1-2.9-0.2v21.4c0,28.3,19.8,62,48,83.9c9.5,7.4,20,13.5,30.9,17.6 C229.9,305.1,238.3,306.9,246.7,306.9z" />
  <path fill="#ECF2F3" d="M85.7,464.1h161h156.6c-10.5-12.2-19.7-26.2-23.8-33.8c-14.7-27.2-19.3-49.2-18.6-79.6 c11.8-1,24.2-5.1,36.1-11.2c-16.9-20.5-39.7-38.2-70.3-49.1c9.2,36-8.9,58.2-21.4,73.2l-58.6-56.7l-58.6,56.7 c-12.5-15-30.6-37.2-21.4-73.2c-70.3,25-99.4,85.7-110.4,135.2C49.9,454.7,57.2,464.1,85.7,464.1L85.7,464.1z" />
  <path class="st1" d="M166.7,290.4c-9.2,36,8.9,58.2,21.4,73.2l58.6-56.7c-8.4,0-16.8-1.8-26.4-5.3c-11-4.1-21.4-10.2-30.9-17.6 C181.4,285.7,173.8,287.9,166.7,290.4z" />
  <path class="st1" d="M246.7,306.9l58.6,56.7c12.5-15,30.6-37.2,21.4-73.2c-7.1-2.5-14.6-4.7-22.6-6.4c-9.6,7.4-20.1,13.6-31.1,17.6 C263.4,305.1,255,306.9,246.7,306.9L246.7,306.9z" />
  <path fill="#e0ef9b" d="M360.9,350.7c-0.7,30.4,3.9,52.4,18.6,79.6c4.1,7.6,13.2,21.6,23.8,33.8c10.7,12.3,22.8,22.7,32.5,22.7 c19.4,0,48-41.1,56.3-56.5c14.6-27.2,19.2-49.2,18.6-79.6c-26-2.3-54.7-19.2-74.9-40.3c-11,11.5-24.6,21.8-38.8,29.1 C385.1,345.6,372.8,349.7,360.9,350.7z" />
  <path d="M421.7,399.7c-4.1-3.1-9.9-2.3-13,1.7c-3.1,4-2.3,9.8,1.7,12.9l15.8,12c1.7,1.3,3.6,1.9,5.6,1.9c2.5,0,5-1,6.9-3L469,392 c3.4-3.8,3.1-9.6-0.6-13c-3.8-3.4-9.6-3.1-13.1,0.6l-24.5,26.9L421.7,399.7z" />
  <path d="M519.9,350.5c-0.1-4.7-3.7-8.6-8.4-9c-22-1.9-49.1-16.6-69-37.5c-1.7-1.8-4.2-2.9-6.7-2.9c0,0,0,0,0,0c-2.5,0-5,1-6.7,2.9
	c-8.9,9.3-19.3,17.5-30,23.7c-18.8-20.9-41.9-36.2-69-45.9c-0.2-0.1-0.5-0.2-0.7-0.3c-2.1-0.7-4.2-1.5-6.4-2.1
	c22.9-22.7,38.3-52.6,38.3-79.4v-14.5c10.8-4.7,18.4-15.5,18.4-27.9c0-13-8.2-24.1-19.7-28.5c-4.8-45.9-37.3-84.6-81.9-97.3
	c-1.3-6.3-6.9-11-13.6-11H231c-6.4,0-11.8,4.4-13.4,10.3c-22,5.8-42,18.3-57.1,35.6c-15.3,17.6-24.8,39.5-27.2,62.4
	c-11.5,4.4-19.7,15.5-19.7,28.4c0,12.5,7.6,23.3,18.4,28v14.5c0,26.8,15.4,56.7,38.3,79.4c-2.1,0.7-4.2,1.3-6.2,2.1
	c-0.4,0.1-0.8,0.3-1.2,0.4c-30.3,10.9-55.6,28.9-75.4,53.8c-19.1,23.9-32.6,53.5-40.3,87.9c-2.7,12.3-4.8,27.7,3.6,38.1
	c8.2,10.2,22.9,11.5,34.8,11.5h60.5c5.1,0,9.2-4.1,9.2-9.2c0-5.1-4.1-9.2-9.2-9.2H85.7c-11.1,0-17.9-1.6-20.4-4.6
	c-2.6-3.2-2.6-10.9,0-22.6c9.6-43.1,33.1-95.8,89.7-122.5c-1.7,31.1,15.2,51.4,25.9,64.3c1.6,2,4,3.2,6.6,3.3
	c2.6,0.1,5.1-0.8,6.9-2.6l52.1-50.5l52.1,50.5c1.7,1.7,4,2.6,6.4,2.6c0.2,0,0.3,0,0.5,0c2.6-0.1,5-1.3,6.6-3.3
	c10.7-12.9,27.6-33.3,25.9-64.3c16.4,7.8,30.9,18.1,43.4,31.1c-7.5,2.9-14.8,4.7-21.6,5.3c-4.7,0.4-8.3,4.3-8.4,9
	c-0.8,32.9,4.7,56.5,19.6,84.1c0.1,0.2,5.2,9.2,13,20.3H229.9c-5.1,0-9.2,4.1-9.2,9.2s4.1,9.2,9.2,9.2H399
	c11.1,12.3,24.3,22.7,36.8,22.7c30.1,0,64.1-60.8,64.5-61.4C515.2,407,520.7,383.4,519.9,350.5L519.9,350.5z M341.2,127.2h-50.9
	c-9.6-25-11.4-45.6-11.8-75.9C311.8,63,336.1,92.3,341.2,127.2L341.2,127.2z M235.6,39.3h24.3c0.1,35.6,1,59.8,10.7,87.9H225
	C234.7,99.1,235.6,74.9,235.6,39.3z M217.1,50.6c-0.3,30.7-2.1,51.4-11.8,76.7h-53.1C157.5,91.9,183,61.8,217.1,50.6L217.1,50.6z
	 M144.2,145.6h61.9c0.5,0.4,1.1,0.5,1.5,0h141.6c6.7,0,12.1,5.4,12.1,12c0,6.6-5.4,12.1-12.1,12.1h-205c-6.7,0-12.1-5.4-12.1-12.1
	C132.1,151,137.6,145.6,144.2,145.6z M150.6,200.1v-11.9h192.3v11.9c0,35.1-34.2,78.5-73.1,92.9c-17,6.3-29.1,6.3-46.2,0
	C184.7,278.5,150.6,235.1,150.6,200.1L150.6,200.1z M189,350c-9.6-12.4-18.8-28.8-14.4-52.5c4.1-1.3,8.3-2.5,12.7-3.6
	c9.3,6.8,19.4,12.4,29.8,16.3c3.4,1.2,6.6,2.3,9.7,3.1L189,350z M304.5,350l-37.9-36.7c3.1-0.8,6.3-1.9,9.6-3.1
	c10.5-3.9,20.6-9.5,30-16.3c4.3,1,8.5,2.2,12.7,3.6C323.2,321.2,314,337.5,304.5,350L304.5,350z M484,425.9
	c-10.9,20.3-36.5,51.7-48.2,51.7c-11.6,0-37.2-31.3-48.2-51.7c-12.2-22.6-17.2-41.5-17.5-67.2c10-1.9,20.4-5.6,30.6-10.8
	c0.4-0.2,0.7-0.3,1.1-0.5c11.9-6.2,23.6-14.3,34.1-24c19.7,18.3,43.7,31.2,65.7,35.4C501.2,384.4,496.2,403.3,484,425.9L484,425.9z" />
  <path d="M188.1,454.9c-5.1,0-9.2,4.1-9.2,9.2c0,5.1,4.1,9.2,9.2,9.2h0.1c5.1,0,9.2-4.1,9.2-9.2C197.4,459,193.2,454.9,188.1,454.9z" />
</svg>
