<svg fill="#fff" viewBox="0 0 512.2663 512" xmlns="http://www.w3.org/2000/svg">
  <path
    d="m448.789062 392.972656c-4.304687-6.457031-8.082031-13.253906-11.289062-20.320312.675781-.570313 1.332031-1.144532 2.101562-1.707032 9.183594-5.855468 14.453126-16.246093 13.746094-27.117187 7.421875-3.511719 13.003906-10.003906 15.359375-17.871094 2.484375-13.070312-.707031-22.234375-8.492187-24.480469-1.164063-.332031-2.363282-.53125-3.574219-.589843-.058594-2.148438-.152344-4.460938-.296875-6.953125-1.707031-28.585938-33.160156-37.273438-51.789062-37.90625h-6.949219c-15.828125.546875-41.410157 7.125-49.203125 27.308594-12.769532-10.363282-28.304688-16.734376-44.671875-18.332032-4.300781-6.457031-8.074219-13.25-11.28125-20.316406.675781-.570312 1.332031-1.144531 2.101562-1.707031 9.183594-5.855469 14.453125-16.25 13.746094-27.117188 7.421875-3.511719 13.003906-10.007812 15.359375-17.871093 2.484375-13.074219-.707031-22.238282-8.488281-24.480469-1.167969-.332031-2.367188-.53125-3.578125-.589844-.058594-2.152344-.152344-4.464844-.296875-6.953125-1.707031-28.589844-33.160157-37.273438-51.789063-37.90625h-6.945312c-18.339844.632812-49.828125 9.316406-51.5 37.90625-.144532 2.480469-.238282 4.792969-.296875 6.9375-1.175781.066406-2.34375.265625-3.472657.585938-7.851562 2.246093-11.09375 11.402343-8.535156 24.953124 2.453125 7.679688 7.988282 13.992188 15.285156 17.425782-.707031 10.863281 4.558594 21.253906 13.738282 27.109375.765625.570312 1.421875 1.144531 2.089844 1.707031-3.199219 7.070312-6.972657 13.871094-11.28125 20.324219-16.371094 1.589843-31.914063 7.953125-44.699219 18.304687-7.796875-20.15625-33.40625-26.726562-49.492188-27.304687h-6.945312c-18.339844.628906-49.828125 9.316406-51.5 37.90625-.144531 2.480469-.238281 4.792969-.296875 6.9375-1.175782.066406-2.34375.261719-3.472656.585937-7.851563 2.246094-11.09375 11.402344-8.535157 24.953125 2.453125 7.679688 7.996094 13.992188 15.292969 17.425781-.707031 10.863282 4.554688 21.25 13.730469 27.109376.765625.570312 1.421875 1.144531 2.089843 1.707031-3.203124 7.074219-6.972656 13.875-11.28125 20.335937-17.960937 1.585938-34.875 9.132813-48.050781 21.441406-10.890625 12.914063-16.367187 29.539063-15.292969 46.398438 0 49.765625 99.574219 51.199219 110.933594 51.199219s110.933594-1.433594 110.933594-51.199219c1.074219-16.859375-4.402344-33.484375-15.292969-46.398438-13.175781-12.308593-30.089843-19.855468-48.050781-21.441406-4.308594-6.457031-8.082031-13.253906-11.289062-20.320312.675781-.570313 1.332031-1.144532 2.097656-1.707032 3.960937-2.84375 7.304687-6.457031 9.832031-10.621093 27.929687 22.902343 89.105469 23.6875 96.835937 23.6875 7.730469 0 68.925782-.785157 96.84375-23.714844 2.523438 4.171875 5.867188 7.789063 9.824219 10.632813.765625.570312 1.425781 1.144531 2.089844 1.707031-3.203125 7.070312-6.980469 13.867187-11.289063 20.324219-17.960937 1.589843-34.875 9.136718-48.050781 21.445312-10.890625 12.917969-16.363281 29.542969-15.285156 46.40625 0 49.765625 99.578125 51.199219 110.933594 51.199219 11.359375 0 110.933593-1.433594 110.933593-51.199219 1.078126-16.859375-4.402343-33.484375-15.292968-46.398438-13.175782-12.308593-30.089844-19.855468-48.050782-21.441406zm-47.589843 56.746094c-10.449219-8.582031-19.480469-18.753906-26.761719-30.148438 8.355469 4.140626 17.457031 6.554688 26.761719 7.105469 9.300781-.558593 18.398437-2.980469 26.742187-7.125-7.265625 11.402344-16.292968 21.585938-26.742187 30.167969zm-23.808594-63.675781c4.605469 4.398437 10.796875 6.746093 17.160156 6.5h13.3125c6.367188.238281 12.554688-2.113281 17.152344-6.519531 1.816406 3.550781 3.96875 7.503906 6.945313 12.316406-9.324219 5.917968-19.816407 9.761718-30.761719 11.269531-10.929688-1.511719-21.40625-5.359375-30.71875-11.269531 2.933593-4.824219 5.121093-8.773438 6.910156-12.324219zm20.488281-112.964844h6.367188c.332031 0 33.84375 1.390625 35.039062 21.828125 1.035156 9.9375.421875 19.976562-1.820312 29.710938-.953125 3.605468-1.46875 7.308593-1.527344 11.035156 0 .699218.0625 1.355468.078125 2.039062v.265625c0 1.050781.058594 2.117188.121094 3.148438 1.652343 6.296875-1.121094 12.921875-6.769531 16.160156-4.628907 3.539063-8.789063 7.652344-12.371094 12.246094-4.148438 5.019531-5.0625 5.972656-9.140625 5.972656h-13.3125c-4.078125 0-4.992188-.945313-9.136719-5.972656-3.582031-4.59375-7.738281-8.707031-12.367188-12.246094-5.644531-3.238281-8.417968-9.863281-6.757812-16.160156.058594-1.03125.078125-2.097657.121094-3.148438 0-.085937 0-.171875 0-.265625 0-.683594.074218-1.339844.074218-2.039062-.023437-1.476563-.144531-2.949219-.355468-4.410156v-.179688c-.277344-2.167969-.660156-4.316406-1.152344-6.445312-1.367188-5.605469-2.070312-11.351563-2.101562-17.125.03125-.484376.015624-.96875-.042969-1.449219 0-3.160157.078125-6.828125.324219-11.09375 1.171874-20.34375 34.699218-21.871094 34.730468-21.871094zm-141.746094 48.640625c-10.449218-8.582031-19.480468-18.753906-26.761718-30.148438 8.355468 4.140626 17.457031 6.554688 26.761718 7.105469 9.300782-.558593 18.398438-2.980469 26.742188-7.125-7.265625 11.402344-16.292969 21.585938-26.742188 30.167969zm-23.808593-63.675781c4.605469 4.398437 10.796875 6.746093 17.160156 6.5h13.3125c6.363281.238281 12.554687-2.113281 17.152344-6.519531 1.816406 3.550781 3.96875 7.503906 6.945312 12.316406-9.328125 5.917968-19.816406 9.761718-30.761719 11.269531-10.929687-1.511719-21.40625-5.359375-30.71875-11.269531 2.933594-4.824219 5.117188-8.773438 6.910157-12.324219zm-14.257813-91.136719c1.1875-20.300781 34.714844-21.828125 34.746094-21.828125h6.367188c.332031 0 33.84375 1.390625 35.039062 21.828125 1.035156 9.9375.421875 19.976562-1.820312 29.710938-.957032 3.605468-1.46875 7.308593-1.527344 11.035156 0 .699218.0625 1.355468.078125 2.039062v.265625c0 1.050781.058593 2.117188.121093 3.148438 1.652344 6.296875-1.121093 12.921875-6.769531 16.160156-4.628906 3.539063-8.789062 7.652344-12.371093 12.246094-4.148438 5.019531-5.0625 5.972656-9.140626 5.972656h-13.3125c-4.078124 0-4.992187-.945313-9.136718-5.972656-3.582032-4.59375-7.738282-8.707031-12.367188-12.246094-5.644531-3.238281-8.417968-9.863281-6.757812-16.160156.058594-1.03125.078125-2.097657.121094-3.148438 0-.085937 0-.171875 0-.265625 0-.683594.074218-1.339844.074218-2.039062-.058594-3.726563-.570312-7.429688-1.527344-11.035156-2.242187-9.734376-2.855468-19.773438-1.816406-29.710938zm-145.066406 128c1.183594-20.300781 34.710938-21.828125 34.746094-21.828125h6.367187c.332031 0 33.84375 1.390625 35.039063 21.828125.246094 4.265625.339844 7.902344.3125 11.042969-.046875.53125-.046875 1.070312 0 1.601562-.03125 5.753907-.738282 11.480469-2.097656 17.066407-.453126 1.964843-.851563 4.0625-1.144532 6.308593 0 .09375-.050781.171875-.050781.265625v.167969c-.203125 1.414063-.320313 2.839844-.347656 4.265625 0 .703125.058593 1.359375.074219 2.042969v.261719c0 1.050781.0625 2.117187.121093 3.148437 1.652344 6.300781-1.121093 12.921875-6.765625 16.164063-4.632812 3.535156-8.789062 7.652343-12.375 12.246093-4.148437 5.015625-5.058594 5.972657-9.140625 5.972657h-13.3125c-4.078125 0-4.988281-.949219-9.136719-5.972657-3.589843-4.585937-7.75-8.695312-12.382812-12.222656-5.644531-3.238281-8.417969-9.863281-6.757812-16.160156.058593-1.03125.078124-2.097657.117187-3.148438 0-.085937 0-.171875 0-.265625 0-.683594.078125-1.339844.078125-2.039062-.058594-3.726563-.570312-7.429688-1.527344-11.035156-2.242187-9.734376-2.855468-19.773438-1.816406-29.710938zm38.066406 154.8125c-10.449218-8.582031-19.480468-18.753906-26.761718-30.148438 8.355468 4.140626 17.457031 6.554688 26.761718 7.105469 9.300782-.558593 18.394532-2.980469 26.742188-7.125-7.265625 11.402344-16.292969 21.585938-26.742188 30.167969zm0-40.109375c-10.929687-1.511719-21.40625-5.359375-30.71875-11.269531 2.976563-4.824219 5.117188-8.773438 6.953125-12.324219 4.589844 4.398437 10.765625 6.753906 17.117188 6.527344h13.3125c6.363281.238281 12.554687-2.113281 17.152343-6.519531 1.816407 3.550781 3.96875 7.503906 6.945313 12.316406-9.328125 5.917968-19.816406 9.761718-30.761719 11.269531zm93.867188 51.203125c0 27.816406-69.511719 34.132812-93.867188 34.132812-24.355468 0-93.867187-6.273437-93.867187-34.132812-.980469-12.507812 2.832031-24.917969 10.667969-34.714844 9.371093-8.46875 21.078124-13.917968 33.59375-15.632812 3.3125 11.519531 13.433593 32.375 44.273437 57.054687.21875.125.441406.238281.671875.339844.484375.320313 1.003906.585937 1.546875.792969.980469.429687 2.050781.636718 3.121094.605468 1.652343-.011718 3.265625-.492187 4.652343-1.390624.210938-.144532.460938-.1875.671876-.347657 30.839843-24.679687 40.960937-45.535156 44.273437-57.054687 12.519531 1.726562 24.226563 7.191406 33.59375 15.675781 7.824219 9.785156 11.640625 22.179687 10.667969 34.671875zm51.199218-93.867188c-28.738281 0-77.910156-6.757812-90.554687-24.601562 6.226563-3.628906 10.863281-9.46875 12.976563-16.359375 2.449218-12.929687-.648438-22-8.242188-24.371094.796875-1.214843 1.675781-2.371093 2.628906-3.464843 9.351563-8.503907 21.0625-13.976563 33.585938-15.691407 3.304687 11.519531 13.425781 32.425781 44.273437 57.0625.691407.375 1.382813.757813 2.074219 1.140625 1.03125.441406 2.136719.671875 3.257812.683594 1.125-.023438 2.230469-.269531 3.261719-.726562.3125-.136719.585938-.324219.851563-.492188.410156-.183594.804687-.402344 1.175781-.648438 30.851563-24.679687 40.960937-45.542968 44.273437-57.0625 12.527344 1.71875 24.238282 7.195313 33.59375 15.699219.957032 1.097657 1.839844 2.257813 2.636719 3.472657-7.574219 2.433593-10.683593 11.46875-8.183593 24.808593 2.203124 6.71875 6.792968 12.394531 12.902343 15.949219-12.59375 17.84375-61.769531 24.601562-90.511719 24.601562zm145.066407 128c-24.355469 0-93.867188-6.273437-93.867188-34.132812-.980469-12.507812 2.832031-24.917969 10.667969-34.714844 9.371094-8.46875 21.082031-13.917968 33.59375-15.632812 3.3125 11.519531 13.433594 32.375 44.273438 57.054687.21875.125.441406.238281.671874.339844.933594.589844 1.960938 1.019531 3.039063 1.261719.539063.101562 1.082031.148437 1.628906.136718 1.074219.035157 2.140625-.171874 3.125-.605468.53125-.207032 1.042969-.46875 1.519531-.785156.222657-.144532.46875-.1875.679688-.347657 30.839844-24.679687 40.960938-45.535156 44.273438-57.054687 12.519531 1.726562 24.226562 7.191406 33.59375 15.675781 7.828124 9.785156 11.640624 22.179687 10.667968 34.671875 0 27.816406-69.511718 34.132812-93.867187 34.132812zm0 0" />
  <path
    d="m172.132812 160.589844c0-3.394532-1.351562-6.648438-3.757812-9.042969l-21.109375-21.113281c-5.066406-4.832032-13.035156-4.832032-18.101563 0l-18.097656 18.101562-18.097656-18.101562c-5.066406-4.832032-13.035156-4.832032-18.101562 0l-21.101563 21.105468c-2.402344 2.398438-3.753906 5.65625-3.753906 9.050782 0 3.398437 1.351562 6.65625 3.753906 9.054687l18.046875 18.101563-18.089844 18.097656c-4.996094 5-4.996094 13.101562 0 18.097656l21.109375 21.113282c5.066407 4.832031 13.035157 4.832031 18.101563 0l18.132812-18.058594 18.097656 18.101562c5 4.996094 13.101563 4.996094 18.101563 0l21.101563-21.105468c2.402343-2.398438 3.753906-5.65625 3.753906-9.050782 0-3.398437-1.351563-6.65625-3.753906-9.054687l-18.046876-18.140625 18.089844-18.101563c2.402344-2.398437 3.742188-5.660156 3.722656-9.054687zm-36.933593 18.101562c-2.402344 2.398438-3.753907 5.65625-3.753907 9.054688 0 3.394531 1.351563 6.652344 3.753907 9.050781l18.097656 18.09375-15.085937 15.085937-18.097657-18.109374c-5-4.996094-13.101562-4.996094-18.101562 0l-18.089844 18.101562-15.085937-15.078125 18.097656-18.09375c2.402344-2.398437 3.753906-5.65625 3.753906-9.050781 0-3.398438-1.351562-6.65625-3.753906-9.054688l-18.097656-18.089844 15.085937-15.089843 18.097656 18.109375c5 4.996094 13.101563 4.996094 18.101563 0l18.089844-18.101563 15.085937 15.089844zm0 0" />
  <path
    d="m462.265625 160.589844c0-3.394532-1.351563-6.648438-3.757813-9.042969l-21.109374-21.113281c-5.066407-4.832032-13.035157-4.832032-18.097657 0l-18.101562 18.101562-18.097657-18.101562c-5.066406-4.832032-13.035156-4.832032-18.101562 0l-21.101562 21.105468c-2.402344 2.398438-3.75 5.65625-3.75 9.050782 0 3.398437 1.347656 6.65625 3.75 9.054687l18.046874 18.101563-18.089843 18.097656c-4.996094 5-4.996094 13.101562 0 18.097656l21.113281 21.113282c5.0625 4.832031 13.03125 4.832031 18.097656 0l18.132813-18.058594 18.101562 18.101562c4.996094 4.996094 13.097657 4.996094 18.097657 0l21.101562-21.105468c2.402344-2.398438 3.753906-5.65625 3.753906-9.050782 0-3.398437-1.351562-6.65625-3.753906-9.054687l-18.046875-18.140625 18.089844-18.101563c2.402343-2.398437 3.742187-5.660156 3.722656-9.054687zm-36.933594 18.101562c-2.402343 2.398438-3.75 5.65625-3.75 9.054688 0 3.394531 1.347657 6.652344 3.75 9.050781l18.097657 18.09375-15.085938 15.085937-18.097656-18.109374c-5-4.996094-13.101563-4.996094-18.101563 0l-18.089843 18.101562-15.085938-15.089844 18.097656-18.089844c2.402344-2.398437 3.753906-5.65625 3.753906-9.054687 0-3.394531-1.351562-6.652344-3.753906-9.050781l-18.097656-18.09375 15.085938-15.085938 18.101562 18.109375c4.996094 4.996094 13.097656 4.996094 18.097656 0l18.089844-18.101562 15.085938 15.089843zm0 0" />
  <path
    d="m296.691406 3.886719-45.226562 45.226562-15.113282-15.054687c-4.996093-4.996094-13.097656-4.996094-18.097656 0l-18.109375 18.097656c-4.996093 5-4.996093 13.101562 0 18.101562l33.1875 33.1875c4.800781 4.800782 11.3125 7.496094 18.105469 7.496094 6.789062 0 13.300781-2.695312 18.101562-7.496094l63.394532-63.328124c4.996094-4.996094 4.996094-13.101563 0-18.097657l-18.132813-18.132812c-2.402343-2.402344-5.660156-3.753907-9.054687-3.753907-3.394532 0-6.652344 1.351563-9.054688 3.753907zm-39.253906 87.492187c-3.371094 3.222656-8.683594 3.222656-12.054688 0l-30.148437-30.175781 12.074219-12.066406 15.078125 15.085937c4.996093 5 13.101562 5 18.097656 0l45.226563-45.226562 12.074218 12.066406zm0 0" />
  </svg>
