<svg viewBox="0 0 512 512" xmlns="http://www.w3.org/2000/svg">
  <path d="m416.31 255.986c0 88.553-71.772 160.324-160.324 160.324-88.524 0-160.296-71.772-160.296-160.324 0-88.524 71.772-160.296 160.296-160.296 88.552 0 160.324 71.772 160.324 160.296zm-315.065 193.149c7.568 7.568 19.899 7.568 27.439 0l14.371-14.343c20.097 12.727 42.462 22.138 66.358 27.524v20.267c0 10.686 8.731 19.417 19.417 19.417h54.339c10.658 0 19.389-8.731 19.389-19.417v-20.267c23.924-5.386 46.289-14.797 66.386-27.524l14.343 14.343c7.54 7.568 19.899 7.568 27.439 0l38.409-38.409c7.568-7.54 7.568-19.899 0-27.439l-14.343-14.343c12.727-20.097 22.138-42.462 27.524-66.386h20.267c10.686 0 19.417-8.731 19.417-19.389v-54.339c0-10.686-8.731-19.417-19.417-19.417h-20.267c-5.386-23.896-14.825-46.261-27.524-66.358l14.343-14.371c7.568-7.54 7.568-19.87 0-27.439l-38.409-38.409c-7.54-7.54-19.899-7.54-27.439 0l-14.343 14.344c-20.097-12.699-42.462-22.138-66.386-27.496v-20.295c0-10.658-8.731-19.389-19.389-19.389h-54.339c-10.686 0-19.417 8.731-19.417 19.389v20.296c-23.896 5.357-46.289 14.797-66.358 27.496l-14.371-14.343c-7.54-7.54-19.87-7.54-27.439 0l-38.409 38.409c-7.54 7.568-7.54 19.899 0 27.439l14.371 14.371c-12.727 20.097-22.167 42.462-27.524 66.358h-20.294c-10.658-.002-19.389 8.729-19.389 19.415v54.339c0 10.658 8.731 19.389 19.389 19.389h20.296c5.357 23.924 14.797 46.289 27.524 66.386l-14.371 14.343c-7.54 7.54-7.54 19.899 0 27.439z"
    fill="#b5cdcd" />

  <path d="m322.117 293.459c-9.723 18.17-43.313 66.613-66.131 66.613-22.79 0-56.38-48.443-66.131-66.613-17.178-32.059-22.592-57.996-21.77-93.825 30.529-2.664 64.26-22.677 87.901-47.536 23.641 24.859 57.372 44.872 87.901 47.536.85 35.829-4.564 61.766-21.77 93.825zm-226.427-37.473c0 88.553 71.772 160.324 160.296 160.324 88.553 0 160.324-71.772 160.324-160.324 0-88.524-71.772-160.296-160.324-160.296-88.524 0-160.296 71.772-160.296 160.296z"
    fill="#ecf2f3" />

  <path d="m168.085 199.634c-.822 35.829 4.592 61.766 21.77 93.825 9.751 18.17 43.341 66.613 66.131 66.613 22.818 0 56.408-48.443 66.131-66.613 17.206-32.059 22.62-57.996 21.77-93.825-30.529-2.664-64.26-22.677-87.901-47.536-23.641 24.859-57.372 44.872-87.901 47.536z"
    fill="#e0ef9b" />

  <path d="m482.583 199.413h-12.419c-5.078-19.253-12.705-37.642-22.751-54.848l8.779-8.797c5.551-5.529 8.611-12.904 8.618-20.766.008-7.875-3.048-15.272-8.604-20.829l-38.408-38.408c-5.536-5.535-12.919-8.584-20.791-8.584s-15.256 3.049-20.791 8.584l-8.793 8.793c-17.268-10.065-35.66-17.687-54.864-22.731v-12.438c0-16.205-13.184-29.389-29.389-29.389h-54.34c-16.221 0-29.417 13.184-29.417 29.389v12.439c-19.222 5.054-37.611 12.675-54.846 22.731l-8.812-8.794c-11.443-11.443-30.092-11.447-41.582 0l-38.42 38.423c-11.436 11.479-11.43 30.126.013 41.568l8.816 8.816c-10.073 17.246-17.701 35.632-22.753 54.841h-12.44c-16.205 0-29.389 13.196-29.389 29.417v54.34c0 16.205 13.184 29.389 29.389 29.389h12.438c5.05 19.218 12.678 37.611 22.751 54.862l-8.813 8.795c-5.535 5.535-8.584 12.919-8.584 20.791s3.049 15.255 8.584 20.791l38.408 38.408c5.55 5.55 12.936 8.605 20.801 8.604h.028c7.861-.007 15.236-3.067 20.746-8.598l8.816-8.8c17.206 10.046 35.595 17.673 54.848 22.751v12.419c0 16.221 13.196 29.417 29.417 29.417h54.34c16.205 0 29.389-13.196 29.389-29.417v-12.417c19.263-5.075 37.659-12.702 54.869-22.749l8.775 8.775c5.536 5.558 12.925 8.618 20.804 8.618s15.268-3.061 20.791-8.604l38.395-38.396c5.558-5.536 8.618-12.925 8.618-20.804s-3.061-15.268-8.604-20.791l-8.789-8.788c10.047-17.211 17.674-35.606 22.749-54.869h12.417c16.221 0 29.417-13.184 29.417-29.389v-54.34c0-16.219-13.196-29.415-29.417-29.415zm9.417 83.757c0 5.177-4.225 9.389-9.417 9.389h-20.268c-4.677 0-8.729 3.241-9.756 7.804-5.061 22.479-13.881 43.754-26.216 63.231-2.503 3.953-1.932 9.113 1.377 12.422l14.356 14.355c1.763 1.757 2.733 4.113 2.733 6.636s-.971 4.879-2.747 6.648l-38.421 38.422c-1.757 1.763-4.113 2.733-6.636 2.733s-4.879-.971-6.648-2.747l-14.343-14.343c-3.31-3.31-8.47-3.88-12.422-1.377-19.478 12.335-40.752 21.155-63.231 26.216-4.563 1.027-7.804 5.079-7.804 9.756v20.268c0 5.192-4.212 9.417-9.389 9.417h-54.34c-5.192 0-9.417-4.225-9.417-9.417v-20.268c0-4.676-3.24-8.728-7.801-9.755-22.468-5.064-43.733-13.885-63.206-26.217-1.646-1.043-3.503-1.552-5.348-1.552-2.58 0-5.138.996-7.067 2.922l-14.391 14.363c-1.755 1.761-4.104 2.731-6.616 2.733-.003 0-.006 0-.009 0-2.522 0-4.888-.975-6.659-2.747l-38.408-38.408c-3.604-3.604-3.604-9.693-.007-13.29l14.371-14.343c3.313-3.308 3.89-8.473 1.384-12.429-12.376-19.542-21.195-40.813-26.213-63.221-1.023-4.567-5.078-7.814-9.759-7.814h-20.293c-5.177 0-9.389-4.212-9.389-9.389v-54.34c0-5.192 4.212-9.417 9.389-9.417h20.296c4.68 0 8.734-3.246 9.758-7.813 5.021-22.395 13.841-43.656 26.214-63.194 2.503-3.953 1.932-9.113-1.377-12.422l-14.371-14.371c-3.659-3.659-3.653-9.63 0-13.297l38.395-38.396c3.682-3.666 9.653-3.672 13.317-.006l14.371 14.343c3.308 3.301 8.463 3.869 12.411 1.372 19.52-12.351 40.783-21.162 63.198-26.188 4.566-1.023 7.813-5.078 7.813-9.758v-20.292c0-5.177 4.225-9.389 9.417-9.389h54.34c5.177 0 9.389 4.212 9.389 9.389v20.296c0 4.681 3.247 8.735 7.814 9.759 22.386 5.013 43.66 13.824 63.229 26.19 3.95 2.495 9.104 1.922 12.413-1.383l14.343-14.343c3.603-3.604 9.692-3.604 13.297 0l38.408 38.408c1.774 1.773 2.75 4.142 2.747 6.668-.002 2.512-.973 4.861-2.754 6.636l-14.343 14.371c-3.303 3.31-3.871 8.465-1.37 12.415 12.332 19.473 21.152 40.738 26.217 63.206 1.027 4.561 5.079 7.801 9.755 7.801h20.268c5.192 0 9.417 4.225 9.417 9.417v54.34z" />
  <path d="m279.086 87.252c-35.912-4.889-73.116 1.949-104.745 19.251-4.846 2.651-6.625 8.728-3.975 13.572 2.651 4.847 8.73 6.625 13.572 3.975 58.11-31.787 131.441-21.239 178.331 25.652 28.396 28.396 44.033 66.145 44.033 106.294s-15.637 77.891-44.034 106.275c-28.382 28.395-66.123 44.031-106.272 44.031s-77.899-15.638-106.294-44.033c-47.06-47.058-57.51-120.576-25.413-178.782 2.667-4.837.908-10.919-3.928-13.586s-10.919-.908-13.586 3.928c-17.463 31.669-24.412 68.951-19.568 104.979 5.005 37.226 21.726 70.977 48.353 97.604 32.173 32.173 74.945 49.891 120.437 49.891 45.493 0 88.258-17.719 120.414-49.89 32.174-32.159 49.893-74.924 49.893-120.417 0-45.491-17.718-88.264-49.891-120.437-26.553-26.551-60.207-43.255-97.327-48.307z" />
  <path d="m142.829 152.46c2.56 0 5.118-.977 7.071-2.929l.028-.028c3.905-3.905 3.891-10.223-.015-14.128s-10.251-3.891-14.156.014-3.905 10.237 0 14.143c1.954 1.951 4.513 2.928 7.072 2.928z" />
  <path d="m210.474 340.129c17.463 20.148 32.351 29.943 45.512 29.943 13.176 0 28.07-9.795 45.534-29.943 12.578-14.512 23.836-31.527 29.409-41.941 17.436-32.487 23.872-60.186 22.955-98.791-.121-5.09-4.047-9.276-9.118-9.724-26.025-2.296-58.028-19.75-81.534-44.467-1.888-1.984-4.507-3.108-7.246-3.108s-5.359 1.124-7.247 3.109c-23.504 24.717-55.507 42.17-81.532 44.466-5.074.447-9.002 4.639-9.118 9.731-.887 38.603 5.549 66.298 22.955 98.783 5.601 10.437 16.872 27.454 29.43 41.942zm45.511-173.936c23.334 21.943 51.895 37.376 77.979 42.164-.225 30.773-6.12 53.284-20.664 80.384-4.889 9.137-15.391 25.017-26.894 38.289-18.531 21.38-27.97 23.042-30.421 23.042-2.446 0-11.867-1.662-30.398-23.042-11.488-13.256-22.009-29.146-26.918-38.294-14.515-27.089-20.408-49.603-20.654-80.38 26.082-4.79 54.639-20.221 77.97-42.163z" />
  <path d="m230.262 266.165 16.951 12.982c1.808 1.384 3.947 2.061 6.076 2.061 2.736 0 5.453-1.119 7.419-3.29l32.399-35.802c3.705-4.095 3.39-10.419-.705-14.125-4.096-3.705-10.418-3.392-14.125.705l-26.218 28.972-9.638-7.382c-4.381-3.354-10.66-2.525-14.02 1.859-3.356 4.385-2.524 10.662 1.861 14.02z" />
</svg>
